HIERARCHY
ROOT hip
{
  OFFSET 0 0 0
  CHANNELS 6 Xposition Yposition Zposition Zrotation Yrotation Xrotation
  JOINT abdomen
  {
    OFFSET 0 20.6881 -0.73152
    CHANNELS 3 Zrotation Xrotation Yrotation
    JOINT chest
    {
      OFFSET 0 11.7043 -0.48768
      CHANNELS 3 Zrotation Xrotation Yrotation
      JOINT neck
      {
        OFFSET 0 22.1894 -2.19456
        CHANNELS 3 Zrotation Xrotation Yrotation
        JOINT head
        {
          OFFSET -0.24384 7.07133 1.2192
          CHANNELS 3 Zrotation Xrotation Yrotation
          JOINT leftEye
          {
            OFFSET 4.14528 8.04674 8.04672
            CHANNELS 3 Zrotation Xrotation Yrotation
            End Site
            {
              OFFSET 1 0 0
            }
          }
          JOINT rightEye
          {
            OFFSET -3.6576 8.04674 8.04672
            CHANNELS 3 Zrotation Xrotation Yrotation
            End Site
            {
              OFFSET 1 0 0
            }
          }
        }
      }
      JOINT rCollar
      {
        OFFSET -2.68224 19.2634 -4.8768
        CHANNELS 3 Zrotation Xrotation Yrotation
        JOINT rShldr
        {
          OFFSET -8.77824 -1.95073 1.46304
          CHANNELS 3 Zrotation Xrotation Yrotation
          JOINT rForeArm
          {
            OFFSET -28.1742 -1.7115 0.48768
            CHANNELS 3 Zrotation Xrotation Yrotation
            JOINT rHand
            {
              OFFSET -22.5879 0.773209 7.07136
              CHANNELS 3 Zrotation Xrotation Yrotation
              JOINT rThumb1
              {
                OFFSET -1.2192 -0.487915 3.41376
                CHANNELS 3 Zrotation Xrotation Yrotation
                JOINT rThumb2
                {
                  OFFSET -3.37035 -0.52449 3.41376
                  CHANNELS 3 Zrotation Xrotation Yrotation
                  End Site
                  {
                    OFFSET -1.78271 -1.18214 1.43049
                  }
                }
              }
              JOINT rIndex1
              {
                OFFSET -7.75947 0.938293 5.60832
                CHANNELS 3 Zrotation Xrotation Yrotation
                JOINT rIndex2
                {
                  OFFSET -2.54057 -0.884171 1.56538
                  CHANNELS 3 Zrotation Xrotation Yrotation
                  End Site
                  {
                    OFFSET -1.62519 -0.234802 1.16502
                  }
                }
              }
              JOINT rMid1
              {
                OFFSET -8.24714 1.18213 3.41376
                CHANNELS 3 Zrotation Xrotation Yrotation
                JOINT rMid2
                {
                  OFFSET -3.10165 -0.590103 1.0647
                  CHANNELS 3 Zrotation Xrotation Yrotation
                  End Site
                  {
                    OFFSET -2.48547 -0.328903 0.83742
                  }
                }
              }
              JOINT rRing1
              {
                OFFSET -8.82822 0.546677 1.51678
                CHANNELS 3 Zrotation Xrotation Yrotation
                JOINT rRing2
                {
                  OFFSET -2.60934 -0.819778 -0.0198488
                  CHANNELS 3 Zrotation Xrotation Yrotation
                  End Site
                  {
                    OFFSET -2.33842 -0.294052 0.168128
                  }
                }
              }
              JOINT rPinky1
              {
                OFFSET -8.27202 -0.0477905 -0.4584
                CHANNELS 3 Zrotation Xrotation Yrotation
                JOINT rPinky2
                {
                  OFFSET -1.82734 -0.647385 -0.700984
                  CHANNELS 3 Zrotation Xrotation Yrotation
                  End Site
                  {
                    OFFSET -1.69225 -0.51767 -0.607171
                  }
                }
              }
            }
          }
        }
      }
      JOINT lCollar
      {
        OFFSET 2.68224 19.2634 -4.8768
        CHANNELS 3 Zrotation Xrotation Yrotation
        JOINT lShldr
        {
          OFFSET 8.77824 -1.95073 1.46304
          CHANNELS 3 Zrotation Xrotation Yrotation
          JOINT lForeArm
          {
            OFFSET 28.1742 -1.7115 0.48768
            CHANNELS 3 Zrotation Xrotation Yrotation
            JOINT lHand
            {
              OFFSET 22.5879 0.773209 7.07136
              CHANNELS 3 Zrotation Xrotation Yrotation
              JOINT lThumb1
              {
                OFFSET 1.2192 -0.487915 3.41376
                CHANNELS 3 Zrotation Xrotation Yrotation
                JOINT lThumb2
                {
                  OFFSET 3.37035 -0.52449 3.41376
                  CHANNELS 3 Zrotation Xrotation Yrotation
                  End Site
                  {
                    OFFSET 1.78271 -1.18214 1.43049
                  }
                }
              }
              JOINT lIndex1
              {
                OFFSET 7.75947 0.938293 5.60832
                CHANNELS 3 Zrotation Xrotation Yrotation
                JOINT lIndex2
                {
                  OFFSET 2.54057 -0.884171 1.56538
                  CHANNELS 3 Zrotation Xrotation Yrotation
                  End Site
                  {
                    OFFSET 1.62519 -0.234802 1.16502
                  }
                }
              }
              JOINT lMid1
              {
                OFFSET 8.24714 1.18213 3.41376
                CHANNELS 3 Zrotation Xrotation Yrotation
                JOINT lMid2
                {
                  OFFSET 3.10165 -0.590103 1.0647
                  CHANNELS 3 Zrotation Xrotation Yrotation
                  End Site
                  {
                    OFFSET 2.48547 -0.328903 0.83742
                  }
                }
              }
              JOINT lRing1
              {
                OFFSET 8.82822 0.546677 1.51678
                CHANNELS 3 Zrotation Xrotation Yrotation
                JOINT lRing2
                {
                  OFFSET 2.60934 -0.819778 -0.0198488
                  CHANNELS 3 Zrotation Xrotation Yrotation
                  End Site
                  {
                    OFFSET 2.33842 -0.294052 0.168128
                  }
                }
              }
              JOINT lPinky1
              {
                OFFSET 8.27202 -0.0477905 -0.4584
                CHANNELS 3 Zrotation Xrotation Yrotation
                JOINT lPinky2
                {
                  OFFSET 1.82734 -0.647385 -0.700984
                  CHANNELS 3 Zrotation Xrotation Yrotation
                  End Site
                  {
                    OFFSET 1.69225 -0.51767 -0.607171
                  }
                }
              }
            }
          }
        }
      }
    }
  }
  JOINT rButtock
  {
    OFFSET -8.77824 4.35084 1.2192
    CHANNELS 3 Zrotation Xrotation Yrotation
    JOINT rThigh
    {
      OFFSET 0 -1.70687 -2.19456
      CHANNELS 3 Zrotation Xrotation Yrotation
      JOINT rShin
      {
        OFFSET 0 -36.8199 0.73152
        CHANNELS 3 Zrotation Xrotation Yrotation
        JOINT rFoot
        {
          OFFSET 0.73152 -45.1104 -5.12064
          CHANNELS 3 Zrotation Xrotation Yrotation
          End Site
          {
            OFFSET -1.1221 -3.69964 12.103
          }
        }
      }
    }
  }
  JOINT lButtock
  {
    OFFSET 8.77824 4.35084 1.2192
    CHANNELS 3 Zrotation Xrotation Yrotation
    JOINT lThigh
    {
      OFFSET 0 -1.70687 -2.19456
      CHANNELS 3 Zrotation Xrotation Yrotation
      JOINT lShin
      {
        OFFSET 0 -36.8199 0.73152
        CHANNELS 3 Zrotation Xrotation Yrotation
        JOINT lFoot
        {
          OFFSET -0.73152 -45.1104 -5.12064
          CHANNELS 3 Zrotation Xrotation Yrotation
          End Site
          {
            OFFSET 1.1221 -3.69964 12.103
          }
        }
      }
    }
  }
}
MOTION
Frames:	6
Frame Time:	0.00833333
-1.49459 79.7621 49.8393 -2.8909 -5.7151 3.395 6.58536 17.2304 -2.26158 4.18527 -8.7321 0.29597 -1.72637 -4.81449 -2.31666 2.16036 -10.5341 -3.80255 -0.0 0.0 0.0 -0.0 0.0 0.0 5.8418e-14 1.50691e-13 3.40457e-15 95.607 32.8068 -18.7456 -27.9121 -40.8414 85.4536 -0.0647639 -7.22886 -1.02146 -3.83221e-10 1.03181e-08 3.08101e-09 -6.80597e-10 1.7931e-08 5.32683e-09 -3.83212e-10 1.03181e-08 3.081e-09 7.73091 5.47488 0.417314 -3.83219e-10 1.03181e-08 3.08101e-09 2.90554 0.965183 0.102902 -3.83211e-10 1.03181e-08 3.08101e-09 10.2786 0.731801 0.0259123 -3.83226e-10 1.03181e-08 3.08101e-09 2.22167 -0.733487 -0.20892 5.8265e-14 1.50691e-13 3.06757e-15 -87.6593 54.0801 7.86292 28.3732 -33.9467 -73.6598 1.24506 -29.9848 4.65069 -1.92378e-09 -1.11212e-08 -2.97038e-09 -3.25164e-09 -1.9169e-08 -5.17623e-09 -1.92379e-09 -1.11212e-08 -2.97037e-09 -7.73091 5.47488 -0.417314 -1.92378e-09 -1.11212e-08 -2.97038e-09 -2.90554 0.965183 -0.102902 -1.92378e-09 -1.11212e-08 -2.97037e-09 -10.2786 0.731801 -0.0259123 -1.92377e-09 -1.11212e-08 -2.97038e-09 -2.22167 -0.733487 0.20892 -2.03217e-16 0.0 -3.88251e-19 15.6702 -41.08 2.63922 -0.953703 53.8059 0.117992 -0.905324 -9.0902 -3.34367 2.03217e-16 0.0 3.88251e-19 6.56168 -15.9312 4.76384 12.3164 85.5377 -13.0259 3.47922 28.5301 -12.4957
-1.77713 79.254 52.4121 -3.9288 -5.658 3.3451 8.06431 17.3821 -2.06516 3.96886 -8.93075 0.409798 -1.72263 -4.27933 -2.36739 2.23926 -11.3552 -3.89814 -0.0 0.0 0.0 -0.0 0.0 0.0 6.9626e-14 1.24139e-13 1.34934e-13 94.3284 33.8698 -16.9935 -27.9419 -40.6854 85.1783 -0.0693744 -7.47889 -1.05719 -6.0987e-10 1.37432e-08 2.52328e-09 -1.06958e-09 2.3851e-08 4.36082e-09 -6.09859e-10 1.37432e-08 2.52327e-09 7.73091 5.47488 0.417314 -6.09869e-10 1.37432e-08 2.52327e-09 2.90554 0.965183 0.102902 -6.09861e-10 1.37432e-08 2.52327e-09 10.2786 0.731801 0.0259123 -6.09876e-10 1.37432e-08 2.52328e-09 2.22167 -0.733487 -0.20892 6.95061e-14 1.24142e-13 1.34624e-13 -89.6823 53.1868 10.1072 28.3545 -33.6477 -73.1678 1.17195 -29.1986 4.50374 -1.76548e-09 -1.01155e-08 -2.82544e-09 -2.98393e-09 -1.74203e-08 -4.92189e-09 -1.7655e-09 -1.01156e-08 -2.82543e-09 -7.73091 5.47488 -0.417314 -1.76549e-09 -1.01156e-08 -2.82544e-09 -2.90554 0.965183 -0.102902 -1.76549e-09 -1.01155e-08 -2.82543e-09 -10.2786 0.731801 -0.0259123 -1.76548e-09 -1.01155e-08 -2.82544e-09 -2.22167 -0.733487 0.20892 -2.03217e-16 0.0 -3.88251e-19 17.6446 -39.7656 3.10314 -0.988791 54.8462 0.231382 -1.83038 -10.8443 -5.97252 2.03217e-16 0.0 3.88251e-19 9.7722 -19.0349 5.77209 46.7092 88.5998 -47.3848 3.20959 27.4005 -12.8755
-2.03345 78.7456 54.9085 -5.0336 -5.5648 3.6439 9.47097 17.5007 -1.86992 3.77416 -9.13192 0.518295 -1.73712 -3.75123 -2.43271 2.33947 -12.2432 -4.01371 -0.0 0.0 0.0 -0.0 0.0 0.0 7.12008e-14 9.11764e-14 2.63677e-13 92.9336 34.9442 -15.1673 -27.957 -40.6108 85.042 -0.0736699 -7.71292 -1.09066 -8.27735e-10 1.50239e-08 1.82408e-09 -1.44239e-09 2.60505e-08 3.1504e-09 -8.27724e-10 1.50239e-08 1.82407e-09 7.73091 5.47488 0.417314 -8.27735e-10 1.50239e-08 1.82408e-09 2.90554 0.965183 0.102902 -8.27729e-10 1.50239e-08 1.82408e-09 10.2786 0.731801 0.0259123 -8.27743e-10 1.50239e-08 1.82409e-09 2.22167 -0.733487 -0.20892 7.11209e-14 9.11834e-14 2.63399e-13 -91.5836 52.2992 12.335 28.3466 -33.4718 -72.8541 1.10872 -28.4777 4.37163 -1.52025e-09 -8.70454e-09 -2.5561e-09 -2.56898e-09 -1.49767e-08 -4.45054e-09 -1.52026e-09 -8.70457e-09 -2.5561e-09 -7.73091 5.47488 -0.417314 -1.52026e-09 -8.70456e-09 -2.55611e-09 -2.90554 0.965183 -0.102902 -1.52025e-09 -8.70455e-09 -2.5561e-09 -10.2786 0.731801 -0.0259123 -1.52024e-09 -8.70455e-09 -2.5561e-09 -2.22167 -0.733487 0.20892 -2.03217e-16 0.0 -3.88251e-19 19.4844 -38.2776 3.51063 -1.00837 55.5611 0.34952 -2.89879 -12.4123 -8.60875 2.03217e-16 0.0 3.88251e-19 12.9418 -22.2229 6.77649 153.425 87.5777 -154.074 2.95138 26.1399 -13.4309
-2.22499 78.3842 57.4669 -5.9085 -5.2672 4.0226 10.3945 17.5709 -1.5964 3.62587 -9.26173 0.62526 -1.74435 -3.52392 -2.51275 2.42928 -12.8872 -4.15851 -0.0 0.0 0.0 -0.0 0.0 0.0 4.67671e-14 5.24745e-14 3.34853e-13 91.5305 35.914 -13.2781 -27.9483 -40.6785 85.1464 -0.0786514 -7.9753 -1.12822 -9.40267e-10 1.08618e-08 1.03848e-09 -1.6325e-09 1.88168e-08 1.79149e-09 -9.40257e-10 1.08618e-08 1.03847e-09 7.73091 5.47488 0.417314 -9.40269e-10 1.08618e-08 1.03847e-09 2.90554 0.965183 0.102902 -9.40262e-10 1.08618e-08 1.03847e-09 10.2786 0.731801 0.0259123 -9.40276e-10 1.08618e-08 1.03849e-09 2.22167 -0.733487 -0.20892 4.67144e-14 5.24836e-14 3.34604e-13 -93.1402 51.5905 14.3306 28.345 -33.4115 -72.739 1.07065 -28.0197 4.2891 -1.18678e-09 -6.9309e-09 -2.1197e-09 -2.00508e-09 -1.19169e-08 -3.68829e-09 -1.18679e-09 -6.93092e-09 -2.1197e-09 -7.73091 5.47488 -0.417314 -1.18679e-09 -6.93091e-09 -2.11971e-09 -2.90554 0.965183 -0.102902 -1.18678e-09 -6.9309e-09 -2.1197e-09 -10.2786 0.731801 -0.0259123 -1.18677e-09 -6.9309e-09 -2.1197e-09 -2.22167 -0.733487 0.20892 -2.03217e-16 0.0 -3.88251e-19 20.7934 -36.7027 3.90806 -1.01816 56.0957 0.470068 -3.95628 -13.9007 -10.8624 2.03217e-16 0.0 3.88251e-19 15.5469 -25.397 7.79464 166.799 85.0176 -167.424 2.63888 24.8797 -13.757
-2.2451 78.1 60.0725 -6.0277 -4.8892 4.221 10.5923 17.5914 -1.20098 3.57978 -9.28329 0.735936 -1.73945 -3.73885 -2.60756 2.52084 -13.2117 -4.33016 -0.0 0.0 0.0 -0.0 0.0 0.0 -2.8554e-14 3.71026e-15 3.2261e-13 90.0851 36.7856 -11.2285 -27.9024 -40.9137 85.5636 -0.0838703 -8.19525 -1.15991 -9.1627e-10 -4.03829e-09 7.0679e-11 -1.5858e-09 -7.04989e-09 1.18816e-10 -9.16262e-10 -4.0383e-09 7.06655e-11 7.73091 5.47488 0.417314 -9.16272e-10 -4.03829e-09 7.06702e-11 2.90554 0.965183 0.102902 -9.16267e-10 -4.03829e-09 7.06743e-11 10.2786 0.731801 0.0259123 -9.16278e-10 -4.0383e-09 7.06854e-11 2.22167 -0.733487 -0.20892 -2.86013e-14 3.71906e-15 3.22396e-13 -94.3061 51.1252 16.053 28.35 -33.4881 -72.8682 1.06112 -27.8975 4.26743 -7.31077e-10 -4.65912e-09 -1.46407e-09 -1.23478e-09 -8.00851e-09 -2.54388e-09 -7.31089e-10 -4.65914e-09 -1.46407e-09 -7.73091 5.47488 -0.417314 -7.31087e-10 -4.65914e-09 -1.46408e-09 -2.90554 0.965183 -0.102902 -7.31077e-10 -4.65912e-09 -1.46407e-09 -10.2786 0.731801 -0.0259123 -7.31073e-10 -4.65912e-09 -1.46407e-09 -2.22167 -0.733487 0.20892 -2.03217e-16 0.0 -3.88251e-19 21.4096 -35.07 4.38176 -1.01304 56.4865 0.593187 -4.95926 -15.4166 -12.6677 2.03217e-16 0.0 3.88251e-19 17.4045 -28.6155 8.90883 170.515 82.8256 -171.115 2.29738 23.692 -13.8321
-2.23492 77.8131 62.6565 -5.9385 -5.007 4.4358 10.329 17.5686 -0.733839 3.6057 -9.24173 0.846783 -1.7374 -4.21823 -2.71727 2.62536 -13.3801 -4.5247 -0.0 0.0 0.0 -0.0 0.0 0.0 -1.39191e-13 -5.39738e-14 2.59911e-13 88.5591 37.5958 -9.04164 -27.8195 -41.2742 86.2369 -0.0888792 -8.37664 -1.1862 -8.09053e-10 -2.64454e-08 -1.07186e-09 -1.39434e-09 -4.59441e-08 -1.85516e-09 -8.09048e-10 -2.64454e-08 -1.07187e-09 7.73091 5.47488 0.417314 -8.09056e-10 -2.64454e-08 -1.07186e-09 2.90554 0.965183 0.102902 -8.09051e-10 -2.64454e-08 -1.07186e-09 10.2786 0.731801 0.0259123 -8.09061e-10 -2.64454e-08 -1.07185e-09 2.22167 -0.733487 -0.20892 -1.39244e-13 -5.39667e-14 2.5974e-13 -95.2499 50.8129 17.6541 28.3638 -33.698 -73.217 1.06984 -27.9991 4.28583 -1.65058e-10 -1.91542e-09 -6.25568e-10 -2.77974e-10 -3.294e-09 -1.08056e-09 -1.65064e-10 -1.91543e-09 -6.25567e-10 -7.73091 5.47488 -0.417314 -1.65063e-10 -1.91543e-09 -6.25574e-10 -2.90554 0.965183 -0.102902 -1.65057e-10 -1.91542e-09 -6.25567e-10 -10.2786 0.731801 -0.0259123 -1.65052e-10 -1.91542e-09 -6.25568e-10 -2.22167 -0.733487 0.20892 -2.03217e-16 0.0 -3.88251e-19 21.5549 -33.3316 4.88048 -0.987937 56.6569 0.716319 -5.94031 -16.8867 -14.215 2.03217e-16 0.0 3.88251e-19 18.8324 -31.897 10.1149 172.205 80.993 -172.786 1.95533 22.4935 -13.8476
